<svg width="405" height="600" viewBox="0 0 405 600" fill="none" xmlns="http://www.w3.org/2000/svg">
<rect x="404.564" width="600" height="404.194" rx="202.097" transform="rotate(90 404.564 0)" fill="url(#paint0_linear_3567_10980)"/>
<rect x="16.0977" y="584.272" width="568.545" height="372.739" rx="186.37" transform="rotate(-90 16.0977 584.272)" fill="url(#paint1_linear_3567_10980)"/>
<rect x="373.109" y="31.4548" width="537.09" height="341.284" rx="170.642" transform="rotate(90 373.109 31.4548)" fill="url(#paint2_linear_3567_10980)"/>
<rect x="47.5527" y="552.818" width="505.636" height="309.83" rx="154.915" transform="rotate(-90 47.5527 552.818)" fill="url(#paint3_linear_3567_10980)"/>
<rect x="341.656" y="62.9099" width="474.181" height="278.375" rx="139.187" transform="rotate(90 341.656 62.9099)" fill="url(#paint4_linear_3567_10980)"/>
<rect x="79.0098" y="521.363" width="442.726" height="246.92" rx="123.46" transform="rotate(-90 79.0098 521.363)" fill="url(#paint5_linear_3567_10980)"/>
<defs>
<linearGradient id="paint0_linear_3567_10980" x1="477.847" y1="404.194" x2="724.446" y2="-95.3259" gradientUnits="userSpaceOnUse">
<stop/>
<stop offset="1" stop-color="#343131"/>
</linearGradient>
<linearGradient id="paint1_linear_3567_10980" x1="85.5383" y1="957.012" x2="309.169" y2="491.541" gradientUnits="userSpaceOnUse">
<stop/>
<stop offset="1" stop-color="#343131"/>
</linearGradient>
<linearGradient id="paint2_linear_3567_10980" x1="438.708" y1="372.739" x2="639.449" y2="-58.3489" gradientUnits="userSpaceOnUse">
<stop/>
<stop offset="1" stop-color="#343131"/>
</linearGradient>
<linearGradient id="paint3_linear_3567_10980" x1="109.31" y1="862.647" x2="287.268" y2="466.34" gradientUnits="userSpaceOnUse">
<stop/>
<stop offset="1" stop-color="#343131"/>
</linearGradient>
<linearGradient id="paint4_linear_3567_10980" x1="399.571" y1="341.285" x2="554.899" y2="-19.7618" gradientUnits="userSpaceOnUse">
<stop/>
<stop offset="1" stop-color="#343131"/>
</linearGradient>
<linearGradient id="paint5_linear_3567_10980" x1="133.083" y1="768.283" x2="265.997" y2="443.084" gradientUnits="userSpaceOnUse">
<stop/>
<stop offset="1" stop-color="#343131"/>
</linearGradient>
</defs>
</svg>
