<svg width="1680" height="1132" viewBox="0 0 1680 1132" fill="none" xmlns="http://www.w3.org/2000/svg">
<rect width="1680" height="1131.74" rx="565.872" fill="url(#paint0_linear_3498_342)" fill-opacity="0.2"/>
<rect x="1635.96" y="1087.71" width="1591.93" height="1043.67" rx="521.835" transform="rotate(-180 1635.96 1087.71)" fill="url(#paint1_linear_3498_342)" fill-opacity="0.2"/>
<rect x="88.0723" y="88.073" width="1503.85" height="955.596" rx="477.798" fill="url(#paint2_linear_3498_342)" fill-opacity="0.2"/>
<rect x="1547.89" y="999.633" width="1415.78" height="867.523" rx="433.761" transform="rotate(-180 1547.89 999.633)" fill="url(#paint3_linear_3498_342)" fill-opacity="0.2"/>
<rect x="176.146" y="176.147" width="1327.71" height="779.45" rx="389.725" fill="url(#paint4_linear_3498_342)" fill-opacity="0.2"/>
<rect x="1459.82" y="911.56" width="1239.63" height="691.376" rx="345.688" transform="rotate(-180 1459.82 911.56)" fill="url(#paint5_linear_3498_342)" fill-opacity="0.2"/>
<defs>
<linearGradient id="paint0_linear_3498_342" x1="205.191" y1="1131.74" x2="895.668" y2="-266.913" gradientUnits="userSpaceOnUse">
<stop/>
<stop offset="1" stop-color="#343131"/>
</linearGradient>
<linearGradient id="paint1_linear_3498_342" x1="1830.4" y1="2131.38" x2="2456.56" y2="828.059" gradientUnits="userSpaceOnUse">
<stop/>
<stop offset="1" stop-color="#343131"/>
</linearGradient>
<linearGradient id="paint2_linear_3498_342" x1="271.749" y1="1043.67" x2="833.822" y2="-163.377" gradientUnits="userSpaceOnUse">
<stop/>
<stop offset="1" stop-color="#343131"/>
</linearGradient>
<linearGradient id="paint3_linear_3498_342" x1="1720.81" y1="1867.16" x2="2219.09" y2="757.495" gradientUnits="userSpaceOnUse">
<stop/>
<stop offset="1" stop-color="#343131"/>
</linearGradient>
<linearGradient id="paint4_linear_3498_342" x1="338.309" y1="955.597" x2="773.227" y2="-55.3338" gradientUnits="userSpaceOnUse">
<stop/>
<stop offset="1" stop-color="#343131"/>
</linearGradient>
<linearGradient id="paint5_linear_3498_342" x1="1611.22" y1="1602.94" x2="1983.38" y2="692.376" gradientUnits="userSpaceOnUse">
<stop/>
<stop offset="1" stop-color="#343131"/>
</linearGradient>
</defs>
</svg>
