<svg width="867" height="584" viewBox="0 0 867 584" fill="none" xmlns="http://www.w3.org/2000/svg">
<rect width="866.91" height="584" rx="292" fill="url(#paint0_linear_3569_296)"/>
<rect x="844.188" y="561.276" width="821.463" height="538.552" rx="269.276" transform="rotate(-180 844.188 561.276)" fill="url(#paint1_linear_3569_296)"/>
<rect x="45.4473" y="45.4475" width="776.016" height="493.105" rx="246.553" fill="url(#paint2_linear_3569_296)"/>
<rect x="798.738" y="515.829" width="730.568" height="447.658" rx="223.829" transform="rotate(-180 798.738 515.829)" fill="url(#paint3_linear_3569_296)"/>
<rect x="90.8945" y="90.8949" width="685.121" height="402.21" rx="201.105" fill="url(#paint4_linear_3569_296)"/>
<rect x="753.291" y="470.381" width="639.673" height="356.763" rx="178.381" transform="rotate(-180 753.291 470.381)" fill="url(#paint5_linear_3569_296)"/>
<defs>
<linearGradient id="paint0_linear_3569_296" x1="433.455" y1="0" x2="433.455" y2="584" gradientUnits="userSpaceOnUse">
<stop stop-color="#FAFAFA"/>
<stop offset="1" stop-color="#F0F0F0"/>
</linearGradient>
<linearGradient id="paint1_linear_3569_296" x1="1254.92" y1="561.276" x2="1254.92" y2="1099.83" gradientUnits="userSpaceOnUse">
<stop stop-color="#FAFAFA"/>
<stop offset="1" stop-color="#F0F0F0"/>
</linearGradient>
<linearGradient id="paint2_linear_3569_296" x1="433.455" y1="45.4475" x2="433.455" y2="538.553" gradientUnits="userSpaceOnUse">
<stop stop-color="#FAFAFA"/>
<stop offset="1" stop-color="#F0F0F0"/>
</linearGradient>
<linearGradient id="paint3_linear_3569_296" x1="1164.02" y1="515.829" x2="1164.02" y2="963.486" gradientUnits="userSpaceOnUse">
<stop stop-color="#FAFAFA"/>
<stop offset="1" stop-color="#F0F0F0"/>
</linearGradient>
<linearGradient id="paint4_linear_3569_296" x1="433.455" y1="90.8949" x2="433.455" y2="493.105" gradientUnits="userSpaceOnUse">
<stop stop-color="#FAFAFA"/>
<stop offset="1" stop-color="#F0F0F0"/>
</linearGradient>
<linearGradient id="paint5_linear_3569_296" x1="1073.13" y1="470.381" x2="1073.13" y2="827.144" gradientUnits="userSpaceOnUse">
<stop stop-color="#FAFAFA"/>
<stop offset="1" stop-color="#F0F0F0"/>
</linearGradient>
</defs>
</svg>
