<svg width="606" height="124" viewBox="0 0 606 124" fill="none" xmlns="http://www.w3.org/2000/svg">
<g clip-path="url(#clip0_3504_401)">
<path d="M157.993 122.907L173.361 99.1072H178.835L184.683 122.907H179.175L174.551 101.827H176.727L163.875 122.907H157.993ZM164.351 117.807L166.595 113.625H178.869L179.515 117.807H164.351ZM199.188 123.315C197.896 123.315 196.638 123.191 195.414 122.941C194.213 122.715 193.114 122.397 192.116 121.989C191.142 121.581 190.314 121.139 189.634 120.663L191.878 116.413C192.626 116.935 193.42 117.388 194.258 117.773C195.12 118.136 196.015 118.419 196.944 118.623C197.874 118.805 198.803 118.895 199.732 118.895C200.752 118.895 201.625 118.782 202.35 118.555C203.098 118.329 203.665 118.011 204.05 117.603C204.458 117.195 204.662 116.697 204.662 116.107C204.662 115.563 204.447 115.121 204.016 114.781C203.586 114.441 203.019 114.158 202.316 113.931C201.636 113.682 200.877 113.444 200.038 113.217C199.2 112.991 198.35 112.73 197.488 112.435C196.65 112.118 195.879 111.733 195.176 111.279C194.496 110.803 193.941 110.203 193.51 109.477C193.08 108.752 192.864 107.845 192.864 106.757C192.864 105.125 193.306 103.709 194.19 102.507C195.097 101.306 196.366 100.377 197.998 99.7192C199.63 99.0392 201.546 98.6992 203.744 98.6992C205.354 98.6992 206.872 98.8806 208.3 99.2432C209.728 99.5832 210.952 100.082 211.972 100.739L209.898 104.955C208.992 104.343 207.983 103.89 206.872 103.595C205.762 103.278 204.617 103.119 203.438 103.119C202.373 103.119 201.455 103.244 200.684 103.493C199.936 103.743 199.358 104.094 198.95 104.547C198.565 104.978 198.372 105.477 198.372 106.043C198.372 106.61 198.576 107.075 198.984 107.437C199.415 107.777 199.982 108.072 200.684 108.321C201.387 108.548 202.158 108.775 202.996 109.001C203.835 109.228 204.674 109.489 205.512 109.783C206.351 110.078 207.122 110.452 207.824 110.905C208.527 111.359 209.094 111.937 209.524 112.639C209.955 113.319 210.17 114.181 210.17 115.223C210.17 116.855 209.717 118.283 208.81 119.507C207.904 120.709 206.623 121.649 204.968 122.329C203.336 122.987 201.41 123.315 199.188 123.315ZM224.61 123.315C223.318 123.315 222.06 123.191 220.836 122.941C219.635 122.715 218.535 122.397 217.538 121.989C216.563 121.581 215.736 121.139 215.056 120.663L217.3 116.413C218.048 116.935 218.841 117.388 219.68 117.773C220.541 118.136 221.437 118.419 222.366 118.623C223.295 118.805 224.225 118.895 225.154 118.895C226.174 118.895 227.047 118.782 227.772 118.555C228.52 118.329 229.087 118.011 229.472 117.603C229.88 117.195 230.084 116.697 230.084 116.107C230.084 115.563 229.869 115.121 229.438 114.781C229.007 114.441 228.441 114.158 227.738 113.931C227.058 113.682 226.299 113.444 225.46 113.217C224.621 112.991 223.771 112.73 222.91 112.435C222.071 112.118 221.301 111.733 220.598 111.279C219.918 110.803 219.363 110.203 218.932 109.477C218.501 108.752 218.286 107.845 218.286 106.757C218.286 105.125 218.728 103.709 219.612 102.507C220.519 101.306 221.788 100.377 223.42 99.7192C225.052 99.0392 226.967 98.6992 229.166 98.6992C230.775 98.6992 232.294 98.8806 233.722 99.2432C235.15 99.5832 236.374 100.082 237.394 100.739L235.32 104.955C234.413 104.343 233.405 103.89 232.294 103.595C231.183 103.278 230.039 103.119 228.86 103.119C227.795 103.119 226.877 103.244 226.106 103.493C225.358 103.743 224.78 104.094 224.372 104.547C223.987 104.978 223.794 105.477 223.794 106.043C223.794 106.61 223.998 107.075 224.406 107.437C224.837 107.777 225.403 108.072 226.106 108.321C226.809 108.548 227.579 108.775 228.418 109.001C229.257 109.228 230.095 109.489 230.934 109.783C231.773 110.078 232.543 110.452 233.246 110.905C233.949 111.359 234.515 111.937 234.946 112.639C235.377 113.319 235.592 114.181 235.592 115.223C235.592 116.855 235.139 118.283 234.232 119.507C233.325 120.709 232.045 121.649 230.39 122.329C228.758 122.987 226.831 123.315 224.61 123.315ZM254.077 123.315C251.675 123.315 249.601 122.885 247.855 122.023C246.133 121.139 244.807 119.927 243.877 118.385C242.948 116.821 242.483 115.019 242.483 112.979C242.483 110.939 242.835 109.058 243.537 107.335C244.24 105.59 245.237 104.083 246.529 102.813C247.844 101.521 249.397 100.513 251.187 99.7872C253.001 99.0619 255.007 98.6992 257.205 98.6992C259.608 98.6992 261.671 99.1412 263.393 100.025C265.139 100.887 266.476 102.099 267.405 103.663C268.335 105.205 268.799 106.995 268.799 109.035C268.799 111.075 268.448 112.968 267.745 114.713C267.043 116.436 266.034 117.943 264.719 119.235C263.427 120.505 261.875 121.502 260.061 122.227C258.271 122.953 256.276 123.315 254.077 123.315ZM254.553 118.623C255.891 118.623 257.092 118.385 258.157 117.909C259.245 117.411 260.163 116.731 260.911 115.869C261.659 115.008 262.226 114.022 262.611 112.911C263.019 111.778 263.223 110.588 263.223 109.341C263.223 108.163 262.974 107.131 262.475 106.247C261.977 105.341 261.24 104.638 260.265 104.139C259.313 103.641 258.135 103.391 256.729 103.391C255.392 103.391 254.191 103.641 253.125 104.139C252.06 104.615 251.142 105.284 250.371 106.145C249.623 107.007 249.045 108.004 248.637 109.137C248.252 110.248 248.059 111.427 248.059 112.673C248.059 113.852 248.309 114.895 248.807 115.801C249.329 116.685 250.065 117.377 251.017 117.875C251.992 118.374 253.171 118.623 254.553 118.623ZM286.675 123.315C284.25 123.315 282.153 122.885 280.385 122.023C278.64 121.139 277.291 119.927 276.339 118.385C275.387 116.821 274.911 115.019 274.911 112.979C274.911 110.962 275.262 109.081 275.965 107.335C276.69 105.59 277.699 104.083 278.991 102.813C280.306 101.521 281.858 100.513 283.649 99.7872C285.462 99.0619 287.48 98.6992 289.701 98.6992C291.832 98.6992 293.713 99.0619 295.345 99.7872C296.977 100.513 298.212 101.555 299.051 102.915L295.073 106.179C294.461 105.273 293.679 104.581 292.727 104.105C291.775 103.629 290.642 103.391 289.327 103.391C287.99 103.391 286.777 103.629 285.689 104.105C284.601 104.559 283.66 105.216 282.867 106.077C282.096 106.916 281.507 107.902 281.099 109.035C280.691 110.169 280.487 111.37 280.487 112.639C280.487 113.841 280.748 114.895 281.269 115.801C281.79 116.685 282.55 117.377 283.547 117.875C284.544 118.374 285.746 118.623 287.151 118.623C288.375 118.623 289.52 118.408 290.585 117.977C291.65 117.524 292.614 116.821 293.475 115.869L296.739 119.201C295.492 120.652 294.008 121.706 292.285 122.363C290.585 122.998 288.715 123.315 286.675 123.315ZM302.839 122.907L307.599 99.1072H313.141L308.381 122.907H302.839ZM314.607 122.907L329.975 99.1072H335.449L341.297 122.907H335.789L331.165 101.827H333.341L320.489 122.907H314.607ZM320.965 117.807L323.209 113.625H335.483L336.129 117.807H320.965ZM351.241 122.907L355.083 103.595H347.467L348.385 99.1072H369.125L368.207 103.595H360.625L356.749 122.907H351.241ZM371.068 122.907L375.828 99.1072H381.37L376.61 122.907H371.068ZM398.307 123.315C395.904 123.315 393.83 122.885 392.085 122.023C390.362 121.139 389.036 119.927 388.107 118.385C387.177 116.821 386.713 115.019 386.713 112.979C386.713 110.939 387.064 109.058 387.767 107.335C388.469 105.59 389.467 104.083 390.759 102.813C392.073 101.521 393.626 100.513 395.417 99.7872C397.23 99.0619 399.236 98.6992 401.435 98.6992C403.837 98.6992 405.9 99.1412 407.623 100.025C409.368 100.887 410.705 102.099 411.635 103.663C412.564 105.205 413.029 106.995 413.029 109.035C413.029 111.075 412.677 112.968 411.975 114.713C411.272 116.436 410.263 117.943 408.949 119.235C407.657 120.505 406.104 121.502 404.291 122.227C402.5 122.953 400.505 123.315 398.307 123.315ZM398.783 118.623C400.12 118.623 401.321 118.385 402.387 117.909C403.475 117.411 404.393 116.731 405.141 115.869C405.889 115.008 406.455 114.022 406.841 112.911C407.249 111.778 407.453 110.588 407.453 109.341C407.453 108.163 407.203 107.131 406.705 106.247C406.206 105.341 405.469 104.638 404.495 104.139C403.543 103.641 402.364 103.391 400.959 103.391C399.621 103.391 398.42 103.641 397.355 104.139C396.289 104.615 395.371 105.284 394.601 106.145C393.853 107.007 393.275 108.004 392.867 109.137C392.481 110.248 392.289 111.427 392.289 112.673C392.289 113.852 392.538 114.895 393.037 115.801C393.558 116.685 394.295 117.377 395.247 117.875C396.221 118.374 397.4 118.623 398.783 118.623ZM418.392 122.907L423.152 99.1072H427.708L437.942 116.345L436.14 116.243L439.54 99.1072H444.98L440.22 122.907H435.698L425.43 105.669L427.266 105.771L423.832 122.907H418.392Z" fill="white"/>
<path d="M123.803 39.485C122.835 40.7645 121.736 41.9948 120.538 43.1759C115.404 48.13 108.94 51.0827 103.265 51.0827C100.968 51.0827 97.6871 50.5742 95.2265 48.1464C92.7167 45.6858 91.7652 41.9128 92.5362 37.5493C93.4056 32.6608 96.2436 27.6903 100.541 23.5401C105.676 18.586 112.123 15.6332 117.815 15.6332C120.112 15.6332 123.393 16.1418 125.853 18.5696C127.969 20.6529 128.986 23.6713 128.773 27.2146H144.423C144.505 19.6523 141.782 12.7133 136.614 7.62796C131.627 2.7231 124.754 0 117.274 0C107.579 0 97.4575 4.41273 89.485 12.0899C82.9397 18.4055 78.5434 26.296 77.1327 34.2848C75.443 43.7993 78.1169 52.838 84.4489 59.0716C89.4358 63.9765 96.3092 66.6831 103.79 66.6831C113.468 66.6831 123.606 62.2704 131.578 54.5768C136.171 50.1477 139.698 44.9476 141.88 39.485H123.803Z" fill="white"/>
<path d="M205.561 15.5682L211.664 1.42773H177.051H165.42L137.861 65.273H149.492H184.105L190.223 51.1161H160.778L165.797 39.4855H195.259L200.558 27.1988H171.096L176.116 15.5682H205.561Z" fill="white"/>
<path d="M70.899 1.42773H51.1155L0 65.273H19.1601L39.0913 40.3713L53.7402 55.6765L53.1333 65.3878H68.6845L72.0473 11.7788L72.7035 1.42773H70.9318H70.899ZM54.7409 39.4855H39.7966L56.004 19.2591L54.7409 39.4855Z" fill="white"/>
<path d="M499.033 1.37598H372.54L366.273 15.5656H387.435L365.978 65.254H449.574L471.014 15.5656H492.75L499.033 1.37598Z" fill="url(#paint0_linear_3504_401)"/>
<path d="M428.117 46.5046C426.821 47.9318 425.476 49.3425 424.803 50.0643C424.246 50.6548 423.803 51.0321 423.212 51.8031C423.015 51.7703 422.819 51.7539 422.638 51.7539C422.343 51.7539 422.048 51.836 421.752 51.918C421.014 52.1476 420.309 52.853 420.161 53.1319C419.718 53.9849 419.669 54.2638 419.653 54.8051C419.636 55.3465 419.702 55.8878 419.849 56.4127C419.915 56.6588 419.997 56.8884 420.112 57.1181C420.145 57.2165 420.194 57.3314 420.243 57.4298L420.276 57.479C420.276 57.479 420.309 57.5282 420.325 57.561C420.325 57.5938 420.325 57.5938 420.358 57.6266L420.407 57.7579C420.473 57.9875 420.506 58.2172 420.522 58.4633V58.6437L420.506 58.9882C420.456 60.1037 420.473 61.2192 420.571 62.3347C420.604 62.5479 420.637 62.8432 420.686 63.1385C418.947 62.876 419.242 61.7605 418.193 59.874C417.733 59.0374 416.519 58.8406 415.732 57.5282C415.174 56.5604 415.994 55.3957 417.586 54.9199C418.996 54.4934 420.834 50.2447 421.785 47.456C422.146 46.4062 422.409 45.5859 423.147 44.7493C423.409 44.4541 425.41 42.7972 425.574 42.7316C425.804 42.6168 425.952 42.6496 426.263 42.7644C426.575 42.8792 427.313 43.3222 427.756 43.6995C428.363 44.2408 429.347 45.1594 428.134 46.4882L428.117 46.5046Z" fill="white"/>
<path d="M409.974 43.8461C411.385 43.436 412.041 41.8119 412.386 41.3526C412.566 41.123 412.943 40.352 413.14 40.0895C413.501 39.5318 413.911 38.9904 414.338 38.4819C415.092 37.6617 415.896 36.8907 416.733 36.1689C417.176 35.7752 417.881 35.2995 418.275 34.5777C418.472 34.2168 418.619 33.8395 418.734 33.4458C418.882 32.7404 419.144 32.0514 419.489 31.4281C419.833 30.7719 420.374 30.3782 420.949 29.9353C421.523 29.4924 422.884 29.0003 423.015 28.951C423.508 28.7378 423.967 28.4589 424.361 28.0816C424.705 27.7699 424.902 27.3434 424.951 26.8841C424.951 26.392 424.804 25.8999 424.541 25.4733C424.475 25.3585 424.393 25.2437 424.328 25.1289L424.065 24.7352L423.54 23.9313C423.196 23.39 422.868 22.8487 422.523 22.2745C422.179 21.684 421.9 21.0606 421.67 20.4044C421.556 20.0436 421.49 19.6827 421.457 19.3054C421.424 18.9445 421.424 18.5836 421.457 18.2391C421.457 18.075 421.474 17.911 421.506 17.6977C421.539 17.5009 421.588 17.304 421.654 17.1072C421.785 16.7463 421.966 16.4018 422.179 16.0901C422.605 15.516 423.098 15.0239 423.672 14.6138C424.213 14.2201 424.804 13.892 425.427 13.6295L427.445 13.0389C427.445 13.0389 427.559 12.9569 427.609 12.9077C427.642 12.8421 427.658 12.7765 427.641 12.6945C427.609 12.4976 427.609 12.2844 427.641 12.0875C427.641 12.0547 427.674 12.0219 427.707 12.0055C427.74 11.9891 427.756 11.9727 427.789 11.9563C427.822 11.9399 427.855 11.9563 427.888 11.9563C427.92 11.9563 427.953 11.9727 427.986 11.9891C428.199 12.1367 428.412 12.2351 428.659 12.3008C429.397 12.3664 429.61 12.1367 429.889 11.6938C430.053 11.4805 430.184 11.2673 430.315 11.0376C431.529 8.85587 431.743 7.13343 431.054 4.78763C430.545 3.08159 429.512 2.09734 427.97 1.98251C425.87 1.81846 424.311 2.63867 423.885 4.2955C423.672 5.09931 423.147 5.32897 422.507 4.95167C417.044 1.76925 416.569 6.78894 411.549 7.4123C411.516 7.4123 411.483 7.42871 411.467 7.44511C411.434 7.46151 411.418 7.49432 411.418 7.52713C411.418 7.55994 411.418 7.59275 411.418 7.62556C411.418 7.65837 411.434 7.69117 411.467 7.70758C412.172 8.46217 413.993 10.2994 418.078 10.6603C418.012 10.6603 421.277 11.4313 422.737 9.03632C423.098 8.31453 423.344 7.54354 423.442 6.75613L423.737 6.60849C423.688 7.13343 423.737 7.67477 423.852 8.1833C424.049 8.74104 424.295 9.26598 424.59 9.75811C424.59 9.79091 424.59 9.82372 424.59 9.87293C424.492 10.4307 424.475 11.1033 424.049 11.497C423.491 12.0055 422.769 12.2023 422.08 12.4156C421.49 12.4484 420.883 12.5304 420.309 12.6781C419.292 12.9241 418.307 13.2686 417.34 13.6951C416.454 14.1052 415.65 14.6958 414.977 15.4504C414.797 15.7292 414.666 16.0409 414.6 16.369C414.535 16.6971 414.551 17.0416 414.6 17.3697C414.813 18.2719 416.011 20.4044 417.225 21.766C417.586 22.1433 417.815 22.619 417.93 23.1439C418.045 23.6689 418.012 24.1938 417.848 24.7023C417.619 25.4898 417.176 26.1787 416.601 26.7365C416.339 26.9825 415.814 27.081 415.453 27.1958C414.928 27.3762 414.436 27.6387 413.993 27.9996C413.435 28.5081 412.993 29.1479 412.73 29.8697C412.451 30.5751 412.353 31.7562 412.008 32.4287C411.861 32.7076 411.68 32.9865 411.5 33.2489C411.139 33.7575 410.794 34.2988 410.483 34.8402C409.925 35.9228 409.433 37.0547 409.039 38.203C408.334 40.1387 407.235 40.0567 405.857 39.0068C405.594 38.7444 403.839 37.2188 403.79 37.186C401.821 35.5291 397.31 35.4307 397.031 34.3808C396.834 32.8552 396.014 32.035 394.603 32.5108C393.8 32.7896 393.406 33.331 392.208 33.8395C391.585 34.102 390.223 33.7575 388.632 35.3487C387.796 36.2017 388.173 36.661 388.37 36.9071C388.649 37.2516 389.321 37.2516 390.109 37.0219C391.027 36.7266 391.979 36.5626 392.93 36.5462C393.357 36.5462 393.898 36.579 394.16 36.6118C395.571 36.7923 396.9 37.4484 397.933 38.4819C400.328 40.7457 402.592 42.1072 405.118 43.7476C405.594 44.0593 406.414 44.7155 407.103 44.6171C408.055 44.4694 409.006 44.2234 409.925 43.9117L409.974 43.8461Z" fill="white"/>
<path d="M445.522 23.7839C445.44 24.194 445.227 24.5713 444.915 24.8337C444.571 25.1618 444.128 25.3915 443.668 25.4899C443.144 25.6047 442.635 25.8016 442.159 26.064C442.044 26.1297 438.911 28.6559 436.434 29.2136C436.155 29.2629 435.876 29.2957 435.598 29.2957C435.401 29.2957 435.204 29.2957 435.023 29.2301C434.958 29.1972 434.892 29.1808 434.827 29.1808C434.564 29.1808 434.466 29.4433 434.318 29.6566C433.941 30.1651 433.596 30.7064 433.285 31.2642C432.661 32.3469 431.923 33.5116 432.76 34.6763C433.531 35.7589 435.089 36.2675 436.237 36.8416C439.289 38.482 441.831 40.9755 443.554 44.0595C444.275 45.339 443.997 46.8154 443.127 48.0129C441.766 49.8994 439.682 50.0306 437.664 50.982C437.041 51.2773 429.807 54.591 428.987 55.0667C428.495 55.3292 428.002 55.6408 427.543 55.9525C427.313 56.1658 426.165 56.6743 425.804 57.6586C424.935 59.9716 424.476 62.8751 424.574 63.3836C424.623 63.6297 424.672 63.8758 424.738 64.1382C424.787 64.3351 424.82 64.5319 424.836 64.7288C424.836 64.7616 424.836 64.778 424.836 64.8108C424.836 64.8928 424.836 64.9584 424.836 65.0405C424.82 65.2865 424.722 65.5326 424.574 65.7458C424.492 65.8607 424.394 65.9427 424.262 65.9919C424.213 65.9919 424.164 66.0083 424.131 66.0083H424.049C424.049 66.0083 423.951 65.9919 423.918 65.9755C423.59 65.8115 423.327 65.549 423.13 65.2209C423.016 65.0405 422.917 64.86 422.819 64.6632C422.737 64.4663 422.655 64.2695 422.589 64.0726C422.523 63.8594 422.458 63.5477 422.392 63.2524C422.327 62.9407 422.277 62.629 422.245 62.3994C422.113 61.3495 422.048 60.2996 422.064 59.2498V58.6428C422.064 58.2983 421.982 57.9538 421.867 57.6258C421.834 57.5601 421.818 57.4781 421.785 57.4125C421.752 57.3469 421.72 57.2813 421.687 57.2157C421.638 57.1172 421.572 57.0188 421.539 56.9204V56.8712C421.441 56.6907 421.359 56.5103 421.309 56.3134C421.227 56.051 421.178 55.7885 421.145 55.526C421.129 55.362 421.113 55.2143 421.113 55.0503C421.113 54.6894 421.195 54.3121 421.359 54.0004L421.392 53.9512C421.474 53.8036 421.588 53.6887 421.736 53.6067C421.884 53.5083 422.048 53.4263 422.228 53.3771C422.359 53.3443 422.507 53.3114 422.638 53.295H422.819C422.999 53.295 423.196 53.3115 423.376 53.3607C423.491 53.3771 423.606 53.3935 423.721 53.3771C424.065 53.3771 424.508 53.3443 424.558 53.3279C424.722 53.3279 425.279 53.1474 425.411 53.1146C425.788 52.9998 426.165 52.8521 426.51 52.6717C427.363 52.0975 428.134 51.4086 428.839 50.654C429.085 50.3423 429.331 50.0306 429.544 49.7025C429.659 49.5385 429.774 49.3744 429.922 49.2268C430.43 48.6855 430.972 48.1769 431.546 47.7176C433.235 46.4381 434.974 46.0936 436.451 45.8311C436.483 45.8311 436.533 45.8147 436.549 45.7819C436.582 45.7491 436.598 45.7163 436.598 45.6835C436.598 45.6507 436.598 45.6015 436.582 45.5687C436.565 45.5358 436.533 45.503 436.5 45.4866C433.842 44.1087 429.971 43.9774 426.739 41.1395C426.542 40.9591 426.296 40.8442 426.05 40.8442C425.706 40.8606 425.378 41.0247 425.148 41.2872C424.64 41.7629 424.131 42.255 423.639 42.7307C423.475 42.8784 423.327 43.0424 423.163 43.19C421.227 44.9125 416.831 47.4879 416.388 47.7504C416.388 47.7504 414.551 49.0956 413.124 49.4893C411.926 49.8338 410.794 50.3751 409.761 51.0805C407.727 52.4912 405.381 53.5083 403.166 54.5418C400.476 55.7885 399.574 56.3134 399.131 56.8548C398.77 57.3797 396.949 59.8075 397.605 64.4499C397.638 64.696 397.655 64.8764 397.425 64.9749C397.327 65.0077 397.228 65.0241 397.13 65.0241C396.785 65.0241 396.457 64.86 396.211 64.614C395.588 64.007 395.112 63.2524 394.817 62.4158C394.521 61.5792 394.423 60.6769 394.538 59.8075C394.685 58.1835 394.341 57.1336 394.341 55.4932C394.341 54.4433 395.26 53.8036 396.26 53.8036C396.998 53.7216 397.737 53.5411 398.442 53.2786C399.033 53.0818 400.181 52.5733 400.64 52.1467C402.51 50.3587 404.692 48.2261 405.151 47.7832C406.201 46.7498 408.252 46.028 408.547 45.946C409.4 45.6835 410.565 45.4702 411.221 45.2406C411.549 45.1586 411.877 45.0273 412.172 44.8305C413.353 43.9446 413.6 43.108 413.895 42.5667C414.059 42.2714 414.272 41.9105 414.453 41.6152C414.633 41.3364 414.797 41.1067 414.961 40.8606C415.306 40.3685 415.683 39.8928 416.093 39.4499C416.946 38.5641 417.848 37.7274 418.783 36.94C419.259 36.4971 420.145 35.841 420.653 33.7412C420.801 33.1179 421.178 31.2642 424.361 30.1651C425.017 29.919 425.624 29.5253 426.116 29.0168C426.395 28.7379 426.624 28.4262 426.805 28.0654C426.985 27.6881 427.1 27.2779 427.117 26.8514C427.117 26.064 426.92 25.293 426.526 24.6369C426.444 24.4728 426.346 24.3252 426.247 24.1776L426.018 23.8003L425.509 23.0129C425.164 22.4879 424.836 21.963 424.558 21.4216C424.262 20.9131 424.016 20.3882 423.836 19.8304C423.672 19.3055 423.622 18.7478 423.672 18.2064C423.672 18.0588 423.688 17.8947 423.705 17.7963C423.721 17.6815 423.754 17.5667 423.787 17.4518C423.869 17.2222 423.983 16.9925 424.131 16.7957C424.459 16.3527 424.853 15.959 425.312 15.6474C425.771 15.3193 426.264 15.0404 426.789 14.8271L428.511 14.171C429.676 13.7281 430.808 13.2359 431.956 12.7602C432.514 12.4649 433.055 12.1533 433.613 11.8088C433.727 11.7268 433.859 11.6447 433.99 11.5627C434.22 11.4643 434.416 11.3002 434.564 11.1034C434.728 10.9065 434.827 10.6769 434.892 10.4144C434.925 10.2996 434.958 10.1848 434.974 10.0699C435.007 9.79105 434.974 9.51218 434.892 9.24972C434.827 8.88882 434.745 8.54433 434.63 8.19984C434.269 7.06795 434.039 4.34485 434.515 3.32779C434.859 2.54039 435.401 1.88422 436.106 1.4085C436.795 0.94918 437.615 0.703116 438.435 0.71952C438.944 0.71952 439.469 0.801541 439.961 0.981988C442.028 1.68737 443.39 3.24577 443.586 5.82123C443.685 8.0358 443.308 10.234 442.487 12.2681C442.356 12.5142 442.176 12.7274 441.979 12.8915C441.782 13.0555 441.536 13.1867 441.273 13.2523C441.191 13.2687 441.109 13.2852 441.027 13.2852C440.584 13.2852 440.01 13.0555 439.551 13.0555C439.453 13.0555 439.338 13.0555 439.256 13.1047C438.846 13.2523 438.435 13.9085 438.173 14.2694C437.664 14.9912 437.976 16.1231 438.173 16.9761C438.813 19.4531 438.796 21.881 437.763 24.276C437.632 24.5713 437.271 24.9978 437.582 25.2274C437.615 25.2438 437.648 25.2602 437.697 25.2602C437.976 25.211 438.239 25.1126 438.485 24.9978C439.141 24.7244 440.021 24.3744 441.126 23.9479C441.29 23.8659 441.438 23.7346 441.552 23.587C441.667 23.4394 441.733 23.2425 441.766 23.0621C442.012 21.881 442.783 21.6841 444.718 20.9131C444.866 20.8475 445.014 20.7983 445.178 20.7819C445.227 20.7819 445.276 20.7819 445.309 20.7983C446.162 21.1428 445.785 23.1113 445.621 23.7674L445.522 23.7839Z" fill="white"/>
<path d="M599.574 15.5672L605.677 1.42676H571.08H559.433L531.874 65.272H543.521H578.118L584.236 51.1151H554.791L559.81 39.4845H589.272L594.571 27.1978H565.109L570.145 15.5672H599.574Z" fill="white"/>
<path d="M516.831 15.5672L522.934 1.42676H506.136L478.577 65.272H490.207H524.82L530.923 51.1151H501.493L516.831 15.5672Z" fill="white"/>
<path d="M290.322 45.1604C290.322 40.8133 288.895 36.7778 286.483 33.4806C292.274 30.2818 296.703 25.2129 296.457 17.9458C296.096 7.4307 286.762 1.42676 276.395 1.42676H254.151L226.591 65.272L269.406 65.3868C269.406 65.3868 269.456 65.3868 269.472 65.3868C269.817 65.3868 270.161 65.3704 270.506 65.354C281.529 64.8455 290.322 56.0036 290.322 45.1768V45.1604ZM263.189 15.5836C267.946 15.5836 272.704 15.5836 277.445 15.5836C278.97 15.5836 280.906 15.7476 282.12 16.8631C283.727 18.3395 283.366 20.9806 282.366 22.9655C282.054 23.6053 281.66 24.163 281.25 24.6059C279.298 26.7385 276.132 27.1322 273.393 27.1978C273.294 27.1978 273.196 27.1978 273.114 27.1978H270.259H270.227H269.997C266.06 27.1978 262.107 27.1978 258.17 27.1814C259.843 23.31 261.516 19.4386 263.189 15.5836ZM247.851 51.1151L248.934 48.6217L252.215 41.0101L252.871 39.4845H271.096C271.441 39.4845 271.801 39.5338 272.146 39.5994C272.359 39.6486 272.556 39.6978 272.753 39.7634C272.884 39.8126 273.015 39.8618 273.147 39.9111C273.278 39.9603 273.409 40.0259 273.54 40.0915C273.786 40.2227 274.032 40.3868 274.278 40.5672C274.278 40.5672 274.278 40.5672 274.295 40.5836C274.295 40.5836 274.295 40.5836 274.311 40.6C274.311 40.6 274.311 40.6 274.328 40.6C275.673 41.6663 276.362 43.2575 276.362 44.9307C276.362 46.2267 275.952 47.539 275.099 48.6709C274.754 49.1302 274.344 49.5239 273.901 49.852C273.868 49.8684 273.852 49.8848 273.819 49.9176C273.278 50.3113 272.687 50.623 272.064 50.8199C272.031 50.8199 271.998 50.8363 271.982 50.8527C271.851 50.8855 271.719 50.9347 271.588 50.9511C271.506 50.9675 271.441 50.9839 271.359 51.0003C271.26 51.0167 271.162 51.0331 271.047 51.0495C270.948 51.0495 270.834 51.0659 270.735 51.0823H247.835L247.851 51.1151Z" fill="white"/>
<path d="M358.941 1.42676H337.385L286.27 65.272H305.43L325.361 40.3704L340.01 55.6755L339.403 65.3868H354.954L358.317 11.7778L358.973 1.42676H358.941ZM340.994 39.4845H326.05L342.257 19.2581L340.994 39.4845Z" fill="white"/>
</g>
<defs>
<linearGradient id="paint0_linear_3504_401" x1="388.831" y1="65.254" x2="414.677" y2="-17.5559" gradientUnits="userSpaceOnUse">
<stop stop-color="#EB3931"/>
<stop offset="1" stop-color="#FF5C16"/>
</linearGradient>
<clipPath id="clip0_3504_401">
<rect width="606" height="124" fill="white"/>
</clipPath>
</defs>
</svg>
